<?xml version="1.0" encoding="utf-8"?>
<!-- Generator: Adobe Illustrator 24.3.0, SVG Export Plug-In . SVG Version: 6.00 Build 0)  -->
<svg version="1.1" id="Layer_1" xmlns="http://www.w3.org/2000/svg" xmlns:xlink="http://www.w3.org/1999/xlink" x="0px" y="0px"
	 viewBox="0 0 328.5 64" style="enable-background:new 0 0 328.5 64;" xml:space="preserve">
<style type="text/css">
	.st0{display:none;}
	.st1{display:inline;}
	.st2{fill:#2F2F41;}
	.st3{fill:#E5261F;}
	.st4{fill:none;}
	.st5{font-family:'BodoniSvtyTwoITCTT-Bold';}
	.st6{font-size:50px;}
	.st7{letter-spacing:2;}
</style>
<g id="Page-1" class="st0">
	<g id="logo" transform="translate(2.000000, 0.000000)" class="st1">
		<path id="Jekyll" class="st2" d="M0.4,61c3.7,0,6.6-0.8,8.7-2.3c2.1-1.5,3.5-3.4,4.2-5.6c0.3-1.1,0.5-2.4,0.6-3.8
			c0.1-1.4,0.2-2.9,0.2-4.4l0,0V23.1c0-1.2,0.1-2.1,0.3-2.6c0.2-0.6,0.5-0.9,1.1-1.2s1.3-0.3,2.3-0.4l0,0v-1c-0.9,0-2,0.1-3.4,0.1
			s-2.8,0-4.2,0s-2.8,0-4.1,0S3.6,18,2.8,18l0,0v1c1,0,1.8,0.2,2.3,0.4s0.9,0.6,1,1.2c0.2,0.6,0.3,1.4,0.3,2.6l0,0v26.3
			c0,2.7-0.2,4.8-0.7,6.3c-0.5,1.5-1.2,2.6-2.1,3.2s-2,1-3.3,1.1l0,0V61z M31.9,52.7c1.8,0,3.3-0.4,4.6-1.1c1.3-0.7,2.3-1.7,3.2-2.8
			c0.8-1.2,1.4-2.3,1.8-3.6l0,0l-0.9-0.3c-1,1.6-2.1,2.6-3.2,3.1c-1.1,0.5-2.2,0.7-3.1,0.7c-1,0-2-0.3-2.9-0.9c-1-0.6-1.8-1.6-2.4-3
			c-0.6-1.4-0.9-3.2-0.9-5.4c0-0.4,0-0.9,0-1.3c0-0.4,0-0.8,0.1-1.2l0,0.2h13.5c0-3.6-0.7-6.3-2.2-8L39.1,29
			c-1.6-1.7-3.8-2.5-6.6-2.5c-2.3,0-4.3,0.5-6.1,1.5c-1.8,1-3.2,2.5-4.2,4.4s-1.5,4.5-1.5,7.4c0,2.9,0.5,5.3,1.4,7.2
			s2.2,3.3,3.9,4.2C27.8,52.2,29.7,52.7,31.9,52.7z M28,36.2c0.2-3,0.6-5.2,1.4-6.6c0.8-1.4,1.7-2.1,2.9-2.1c0.8,0,1.4,0.4,1.9,1.2
			c0.5,0.8,0.8,1.9,1.1,3.2c0.2,1.3,0.3,2.8,0.3,4.3l0,0L28,36.2L28,36.2z M71.2,52v-1c-0.5-0.2-1-0.5-1.4-1c-0.4-0.4-0.8-1-1.1-1.5
			l0,0L60.7,35l3.1-3.2c0.9-0.9,1.8-1.6,2.7-2.2l0.4-0.2c1-0.6,2-1.1,3-1.2l0,0v-1c-0.4,0-0.9,0.1-1.5,0.1c-0.6,0-1.3,0-2,0
			c-0.7,0-1.4,0-2,0c-0.7,0-1.6,0-2.7,0c-1.1,0-2-0.1-2.9-0.1l0,0v1c1.1,0,2,0.3,2.7,0.8c0.7,0.5,1,1.1,1,1.9c0,0.8-0.5,1.7-1.6,2.7
			l0,0L57,37.1c-0.4,0.4-0.9,0.8-1.4,0.9c-0.5,0.2-1.1,0.3-1.8,0.3l0.2,0l0-23.9c-0.8,0.2-1.7,0.3-2.7,0.4l-0.6,0.1
			c-1.2,0.1-2.4,0.2-3.7,0.2c-1,0-2,0-3-0.1l0,0v1c1.2,0,2,0.3,2.4,1c0.4,0.7,0.6,1.8,0.6,3.2l0,0v27.4c0,1.3-0.2,2.3-0.7,2.7
			S45.2,51,44.1,51l0,0v1c0.6,0,1.6-0.1,2.9-0.1s2.5-0.1,3.8-0.1c1.2,0,2.4,0,3.6,0.1S56.4,52,57,52l0,0v-1c-1.1,0-1.8-0.2-2.2-0.7
			s-0.6-1.4-0.6-2.7l0,0l0-8.2l0,0c0.4,0,0.8,0.1,1,0.2l0.2,0.1c0.4,0.2,0.7,0.6,1.1,1.2l0,0l4.8,8.6c0.3,0.5,0.3,0.9,0.1,1.2
			C61.1,50.8,60.6,51,60,51l0,0v1c0.6,0,1.5-0.1,2.6-0.1c1.2,0,2.4-0.1,3.6-0.1c1,0,1.9,0,2.9,0.1S70.7,52,71.2,52L71.2,52z
			 M77.7,61c0.9,0,1.7-0.1,2.4-0.3c0.7-0.2,1.3-0.5,1.7-0.9c0.8-0.6,1.5-1.8,2.1-3.4l0,0l1.8-5.1l6.8-19c0.5-1.4,1-2.4,1.6-3
			c0.5-0.6,1.1-1,1.7-1.1l0,0v-1c-0.4,0-1,0.1-1.7,0.1c-0.7,0-1.4,0-2,0s-1.4,0-2.3,0c-0.9,0-1.7-0.1-2.4-0.1l0,0v1
			c1.5,0.1,2.6,0.8,3.2,2c0.6,1.2,0.5,3.1-0.4,5.7l0,0L87,45l-5.9-14.2c-0.4-0.8-0.5-1.4-0.3-1.8l0-0.1c0.2-0.4,0.6-0.6,1.2-0.7
			c0.6-0.1,1.2-0.1,1.8-0.1l0,0v-1c-1,0.1-2,0.1-3.1,0.2c-1.1,0.1-2.3,0.1-3.6,0.1c-1.1,0-2.2,0-3.3-0.1s-2.2-0.1-3.3-0.2l0,0v1
			c0.4,0,0.8,0.1,1.4,0.4c0.5,0.3,1.1,1,1.6,2.3l0,0L83.8,54L83,56.3c-0.4,1.2-1,2.1-1.7,2.7l-0.2,0.1c-0.7,0.6-1.6,0.9-2.5,0.9l0,0
			h-0.5c-0.2,0-0.4,0-0.6,0c0.8-0.3,1.4-0.7,1.8-1.3c0.4-0.6,0.6-1.2,0.6-1.8c0-1-0.3-1.7-1-2.3s-1.5-0.8-2.6-0.8
			c-1.2,0-2.1,0.3-2.8,0.9c-0.7,0.6-1.1,1.4-1.1,2.4c0,0.9,0.3,1.6,0.8,2.2c0.5,0.6,1.2,1,2,1.2C76.2,60.9,77,61,77.7,61z M110.2,52
			v-1c-1.1,0-1.9-0.2-2.4-0.7c-0.5-0.5-0.7-1.4-0.7-2.7l0,0V14.4c-1,0.2-2.1,0.4-3.3,0.5c-1.2,0.1-2.4,0.2-3.7,0.2c-1,0-2,0-3-0.1
			l0,0v1c1.2,0,2,0.3,2.4,1c0.4,0.7,0.6,1.8,0.6,3.2l0,0v27.4c0,1.3-0.2,2.3-0.7,2.7c-0.5,0.5-1.3,0.7-2.4,0.7l0,0v1
			c0.6,0,1.6-0.1,2.9-0.1s2.5-0.1,3.8-0.1c1.2,0,2.5,0,3.7,0.1C108.7,51.9,109.6,52,110.2,52L110.2,52z M125.2,52v-1
			c-1.1,0-1.9-0.2-2.4-0.7c-0.5-0.5-0.7-1.4-0.7-2.7l0,0V14.4c-1,0.2-2.1,0.4-3.3,0.5c-1.2,0.1-2.4,0.2-3.7,0.2c-1,0-2,0-3-0.1l0,0
			v1c1.2,0,2,0.3,2.4,1c0.4,0.7,0.6,1.8,0.6,3.2l0,0v27.4c0,1.3-0.2,2.3-0.7,2.7c-0.5,0.5-1.3,0.7-2.4,0.7l0,0v1
			c0.6,0,1.6-0.1,2.9-0.1s2.5-0.1,3.8-0.1s2.5,0,3.7,0.1C123.6,51.9,124.5,52,125.2,52L125.2,52z"/>
		<path id="Serif" class="st3" d="M142.7,52.7c2.1,0,4.1-0.3,5.9-1c1.8-0.7,3.2-1.7,4.3-3.1c1.1-1.4,1.7-3.1,1.7-5.2
			c0-1.7-0.4-3.2-1.1-4.5c-0.7-1.2-1.7-2.4-2.9-3.4s-2.6-2-4.1-3c-1.8-1.2-3.3-2.3-4.5-3.1s-2.2-1.8-2.8-2.7c-0.6-0.9-1-2-1-3.3
			c0-1.5,0.5-2.7,1.5-3.6s2.3-1.3,3.8-1.3c1.7,0,3.1,0.5,4.3,1.5s2.1,2.3,2.7,3.9s1,3.2,1.2,4.8l0,0h1.1c0-2.2,0-4,0-5.4
			c0-1.4,0-2.5,0.1-3.3c0-0.8,0.1-1.6,0.1-2.2l0,0h-1.1c-0.2,1.4-0.5,2.1-1.1,2.1c-0.2,0-0.5-0.1-0.7-0.2c-0.2-0.1-0.6-0.3-0.9-0.5
			c-0.7-0.4-1.6-0.9-2.6-1.3c-1-0.4-2.5-0.6-4.4-0.6c-1.9,0-3.6,0.3-5.3,0.9c-1.6,0.6-3,1.6-4,2.9s-1.5,3-1.5,5
			c0,1.8,0.4,3.3,1.2,4.6c0.8,1.3,1.8,2.4,3.1,3.4s2.7,2,4.2,3c2.1,1.4,3.8,2.7,5.2,4c1.3,1.3,2,2.9,2,4.9c0,1.8-0.6,3.1-1.7,4
			c-1.2,0.9-2.6,1.3-4.2,1.3c-2,0-3.7-0.6-4.9-1.7s-2.1-2.6-2.7-4.4c-0.6-1.8-1-3.8-1.1-5.9l0,0h-1.1c0,2.5,0,4.6,0,6.3
			c0,1.6,0,3,0,4c0,1-0.1,1.9-0.1,2.7l0,0h1.1c0.2-1.4,0.5-2.1,1.1-2.1c0.4,0,0.9,0.2,1.6,0.7c0.8,0.4,1.8,0.8,3,1.2
			C139.1,52.5,140.7,52.7,142.7,52.7z M169.4,52.7c1.8,0,3.3-0.4,4.6-1.1s2.3-1.7,3.2-2.8s1.4-2.3,1.8-3.6l0,0l-0.9-0.3
			c-1,1.6-2.1,2.6-3.2,3.1s-2.2,0.7-3.1,0.7c-1,0-2-0.3-2.9-0.9c-1-0.6-1.8-1.6-2.4-3c-0.6-1.4-0.9-3.2-0.9-5.4c0-0.4,0-0.9,0-1.3
			c0-0.4,0-0.8,0.1-1.2l0,0.2h13.5c0-3.6-0.7-6.3-2.2-8l-0.2-0.2c-1.6-1.7-3.8-2.5-6.6-2.5c-2.3,0-4.3,0.5-6.1,1.5s-3.2,2.5-4.2,4.4
			c-1,2-1.5,4.5-1.5,7.4c0,2.9,0.5,5.3,1.4,7.2s2.2,3.3,3.9,4.2C165.3,52.2,167.2,52.7,169.4,52.7z M165.5,36.2
			c0.2-3,0.6-5.2,1.4-6.6c0.8-1.4,1.7-2.1,2.9-2.1c0.8,0,1.4,0.4,1.9,1.2c0.5,0.8,0.8,1.9,1.1,3.2s0.3,2.8,0.3,4.3l0,0L165.5,36.2
			L165.5,36.2z M196.4,52v-1c-1.5,0-2.6-0.3-3.4-0.8c-0.8-0.5-1.1-1.6-1.1-3.1l0,0V34.3c0-0.9,0.2-1.7,0.6-2.6s0.9-1.7,1.6-2.3
			c0.7-0.7,1.4-1,2.2-1.2c0.4-0.2,0.9-0.2,1.3,0c-0.6,0.4-1.1,0.9-1.5,1.5c-0.4,0.6-0.6,1.3-0.6,2.2c0,0.9,0.3,1.7,0.9,2.2
			c0.6,0.6,1.5,0.8,2.6,0.8s2-0.4,2.7-1.1c0.7-0.8,1-1.7,1-2.9c0-0.7-0.2-1.4-0.5-2.1s-0.8-1.2-1.4-1.7s-1.5-0.6-2.5-0.6
			c-1,0-2,0.2-2.8,0.6s-1.6,1-2.2,1.7s-1.2,1.5-1.5,2.4l0,0v-4.5c-1,0.2-2.1,0.4-3.2,0.5s-2.4,0.2-3.8,0.2c-1,0-2,0-3-0.1l0,0v1
			c1.2,0,2,0.3,2.4,1c0.4,0.7,0.6,1.8,0.6,3.2l0,0v15.1c0,1.3-0.2,2.3-0.7,2.7c-0.5,0.5-1.3,0.7-2.4,0.7l0,0v1c0.7,0,1.7-0.1,3-0.1
			c1.3,0,2.6-0.1,3.9-0.1c1.5,0,3,0,4.4,0.1C194.6,51.9,195.6,52,196.4,52L196.4,52z M210.5,22.2c1.3,0,2.4-0.3,3.2-1
			c0.8-0.7,1.2-1.6,1.2-2.7s-0.4-2.1-1.2-2.7c-0.8-0.7-1.8-1-3.2-1c-1.3,0-2.4,0.3-3.2,1s-1.2,1.6-1.2,2.7s0.4,2.1,1.2,2.7
			S209.2,22.2,210.5,22.2z M217.3,52v-1c-1.1,0-1.9-0.2-2.4-0.7c-0.5-0.5-0.7-1.4-0.7-2.7l0,0V26.7c-1,0.2-2.1,0.4-3.2,0.5
			s-2.4,0.2-3.8,0.2c-1,0-2,0-3-0.1l0,0v1c1.2,0,2,0.3,2.4,1c0.4,0.7,0.6,1.8,0.6,3.2l0,0v15.1c0,1.3-0.2,2.3-0.7,2.7
			c-0.5,0.5-1.3,0.7-2.4,0.7l0,0v1c0.6,0,1.6-0.1,2.9-0.1s2.5-0.1,3.8-0.1s2.5,0,3.7,0.1C215.9,51.9,216.8,52,217.3,52L217.3,52z
			 M233.9,52v-1c-1.4,0-2.5-0.3-3.3-0.8c-0.8-0.5-1.2-1.6-1.2-3.1l0,0V28.2h5.1v-1h-5.1v-4.4c0-1.9,0.1-3.3,0.2-4.2
			c0.1-0.9,0.4-1.6,0.7-2.1c0.3-0.4,0.6-0.7,1-0.9s0.9-0.3,1.6-0.3c0.5,0,0.9,0.1,1.2,0.2c0.3,0.1,0.5,0.3,0.6,0.5
			c-0.9,0.3-1.6,0.7-2.1,1.3c-0.5,0.6-0.7,1.4-0.7,2.2c0,1.1,0.3,1.9,1,2.5c0.7,0.6,1.6,0.9,2.6,0.9c1,0,1.8-0.3,2.5-1
			c0.6-0.7,0.9-1.4,0.9-2.3c0-0.8-0.2-1.5-0.5-2.1c-0.3-0.6-0.7-1.1-1.2-1.5c-0.6-0.5-1.4-0.9-2.2-1.2s-1.8-0.4-2.9-0.4
			c-1.3,0-2.6,0.2-3.8,0.7s-2.1,1-2.8,1.7c-1.1,1.1-1.9,2.4-2.4,3.9c-0.4,1.5-0.7,3.7-0.7,6.5l0,0h-3.3v1h3.3v19.3
			c0,1.3-0.2,2.3-0.7,2.7c-0.5,0.5-1.3,0.7-2.4,0.7l0,0v1c0.6,0,1.5-0.1,2.7-0.1s2.4-0.1,3.6-0.1c1.7,0,3.2,0,4.8,0.1
			C231.9,51.9,233.1,52,233.9,52L233.9,52z"/>
	</g>
</g>
<rect x="0.6" y="16.1" class="st4" width="241.9" height="58"/>
<text transform="matrix(1 0 0 1 0.6001 51.353)" class="st2 st5 st6 st7">Zachary</text>
<rect x="174.2" y="16.1" class="st4" width="156.7" height="58"/>
<text transform="matrix(1 0 0 1 174.2474 51.353)" class="st3 st5 st6 st7">Klosko</text>
</svg>
