<?xml version="1.0" encoding="utf-8"?>
<!-- Generator: Adobe Illustrator 24.3.0, SVG Export Plug-In . SVG Version: 6.00 Build 0)  -->
<svg version="1.1" id="Layer_1" xmlns="http://www.w3.org/2000/svg" xmlns:xlink="http://www.w3.org/1999/xlink" x="0px" y="0px"
	 viewBox="0 0 32 32" style="enable-background:new 0 0 32 32;" xml:space="preserve">
<style type="text/css">
	.st0{fill-rule:evenodd;clip-rule:evenodd;fill:#E5261F;}
	.st1{display:none;fill:#FFFFFF;}
	.st2{fill:none;}
	.st3{fill:#FFFFFF;}
	.st4{font-family:'BodoniSvtyTwoOSITCTT-Bold';}
	.st5{font-size:24px;}
</style>
<g id="Page-1">
	<g id="Group">
		<path id="Rectangle" class="st0" d="M3,0h26c1.7,0,3,1.3,3,3v26c0,1.7-1.3,3-3,3H3c-1.7,0-3-1.3-3-3V3C0,1.3,1.3,0,3,0z"/>
		<path id="S" class="st1" d="M16.1,25.3c1.1,0,2.1-0.2,3-0.5s1.6-0.9,2.2-1.5s0.8-1.6,0.8-2.6c0-0.9-0.2-1.6-0.6-2.2
			s-0.9-1.2-1.5-1.7s-1.3-1-2.1-1.5c-0.9-0.6-1.6-1.1-2.2-1.6c-0.6-0.4-1.1-0.9-1.4-1.3c-0.3-0.5-0.5-1-0.5-1.6
			c0-0.8,0.2-1.4,0.7-1.8s1.1-0.6,1.9-0.6s1.6,0.3,2.1,0.8s1,1.1,1.4,1.9s0.5,1.6,0.6,2.4l0,0h0.6c0-1.1,0-2,0-2.7s0-1.2,0-1.7V8.9
			c0-0.3,0-0.6,0-0.8l0,0h-0.6C20.6,8.6,20.4,9,20.1,9c-0.1,0-0.2,0-0.3-0.1s-0.3-0.1-0.5-0.3C19,8.4,18.5,8.2,18,8
			s-1.2-0.3-2.2-0.3c-0.9,0-1.8,0.2-2.6,0.5c-0.8,0.3-1.5,0.8-2,1.4s-0.8,1.5-0.8,2.5c0,0.9,0.2,1.6,0.6,2.3s0.9,1.2,1.6,1.7
			c0.7,0.5,1.4,1,2.1,1.5c1.1,0.7,1.9,1.4,2.6,2s1,1.5,1,2.5c0,0.9-0.3,1.6-0.9,2s-1.3,0.7-2.1,0.7c-1,0-1.8-0.3-2.5-0.8
			c-0.6-0.6-1.1-1.3-1.4-2.2c-0.3-0.9-0.5-1.9-0.5-3l0,0h-0.6c0,1.3,0,2.3,0,3.1c0,0.8,0,1.5,0,2s0,1-0.1,1.3l0,0h0.6
			c0.1-0.7,0.3-1.1,0.5-1.1s0.5,0.1,0.8,0.3c0.4,0.2,0.9,0.4,1.5,0.6C14.3,25.2,15.1,25.3,16.1,25.3z"/>
	</g>
</g>
<rect x="0.6" y="7.2" class="st2" width="30.7" height="17.6"/>
<text transform="matrix(1 0 0 1 9.4003 23.9238)" class="st3 st4 st5">Z</text>
</svg>
